<?xml version="1.0" encoding="UTF-8"?>
<svg xmlns="http://www.w3.org/2000/svg" viewBox="0 0 512 512" width="512" height="512">
<path d="M435.75 69.04C431.26 67.87 426.86 65.06 422.57 63.22C413.39 59.29 403.77 55.8 394.13 53.19C369.26 46.45 341.96 43.73 316.91 51.22C304.4 54.95 293.33 61.54 282.55 68.78C272.21 75.72 261.41 83.53 253.71 93.46C251.41 96.41 247.48 100.7 247.75 104.57C251.56 102.67 254.29 98.51 257.27 95.51C262.31 90.44 267.8 85.55 273.54 81.3C298.11 63.09 328.19 51.53 359.23 55.15C389.81 58.72 420.65 68.13 445.36 86.87C449.71 90.16 454.71 93.3 458.48 97.28C467.78 107.09 473.59 120.05 479.17 132.12C488.8 152.97 496.84 173.98 501.19 196.65C504.66 214.72 506.18 233.23 504.28 251.61C503.78 256.41 504.18 265.37 501.25 269.15C495.84 252.82 492.61 235.8 485.75 219.97C468.36 179.84 436.58 145.66 396.44 127.77C389.25 124.57 381.51 121.47 373.75 119.98C344.79 114.38 325.66 115.84 297.23 122.91C291.35 124.37 285.73 126.55 280.14 128.85C277.85 129.79 274.28 130.45 274.2 133.25C278.62 133.36 288.52 129.39 293.47 128.25C305.68 125.43 318.65 124.03 331.18 123.28C371.53 120.83 411.3 139.92 439.07 168.19C470.28 199.96 487.54 238.51 491.2 282.73C492.25 295.51 493.91 309.43 490.76 322.04C483.52 351.04 468.21 373.21 450.36 396.61C439.79 410.45 427.55 423.3 414.06 434.33C409.99 437.66 402.59 444.44 397.65 445.75C398.85 441.43 407.1 429.6 409.78 424.56C417.04 410.87 422.4 395.74 425.81 380.64C440.96 313.62 405.31 245.91 354.37 203.87C336.48 189.11 313.97 177.54 291.27 172.89C286.77 171.96 273.06 168.16 269.4 170.25C270.15 173.43 272.79 173.06 275.6 173.7C281.64 175.07 287.7 176.2 293.57 178.23C315.47 185.8 336.27 197.57 353.58 213.19C393.99 249.67 421.84 304.32 416.79 359.69C414.8 381.58 407.58 402.77 397.28 422C391.32 433.13 384.1 443.58 376.22 453.46C373.57 456.78 371.18 460.93 367.75 463.51C365.1 465.5 347.82 473.76 344.51 474.73C340.75 475.84 335.92 473.65 332.49 472.28C323.58 468.7 315.22 464.12 307.62 458.16C302.29 453.99 297.36 449.4 293.36 443.91C280.26 425.94 285.17 407.58 294.84 389.62C301.26 377.68 308.07 366 315.25 354.48C325.44 338.14 334.28 327.14 334.64 306.75C334.98 287.98 327.86 268.38 318.16 252.62C316.25 249.53 309.47 238.19 305.74 239.25C305.76 242.58 312.04 250.81 313.75 254.47C318.42 264.52 321.62 275.71 322.85 286.76C325.55 311.1 320.72 329.96 307.67 350.43C301.76 359.71 293.41 367.3 287.18 376.4C283.4 381.92 280.01 387.89 277.26 393.98C276.04 396.68 275.24 400.89 273.25 402.93C269.51 400.19 266.94 394.42 264.8 390.42C257.77 377.29 253.68 360.9 259.22 346.43C261.06 341.63 269.47 336.39 269.75 332.33C266.52 331.85 262.24 333.85 259.16 334.85C250.51 337.64 242.44 342.53 233.75 345.02C228.29 342.64 220.97 334.92 215.44 331.31C210.99 328.4 206.35 325.54 201.56 323.23C199.17 322.07 196.54 321.28 194.35 319.75C196.55 318.03 199.94 317.32 202.45 315.7C205.8 313.54 207.71 310.37 210.17 307.39C211.22 306.12 213.2 304.43 213.29 302.68C213.45 299.56 209.66 294.75 208.22 292.07C206.96 289.71 205.91 286.61 204.01 284.75C199.56 284.05 187.94 288.69 185.23 284.05C181.24 277.19 189.48 261.12 190.9 253.73C191.58 250.17 192.24 246.28 190.94 242.78C190.51 241.62 189.52 240.54 189.45 239.25C189.32 236.74 192.4 234.18 194.75 234.01C199.49 233.67 200.08 242.01 200.09 245.25C200.09 253.19 196.24 260.27 193.82 267.63C192.61 271.29 190.74 275.76 192.25 279.57C197.82 282.18 204.32 275.41 208.96 277.31C212.96 278.94 215.22 292.36 218.75 295.88C224.92 290.55 231.08 285.22 237.25 279.89C232.87 276.57 225.7 274.95 224.91 268.25C227.11 266.33 240.42 265.54 244.24 264.9C254.98 263.11 266.99 258.88 276.07 252.8C284.1 247.43 290.94 238.3 290.38 228.25C290.21 225.07 289.81 219.54 286.25 218.52C284.81 220.31 284.92 227.07 283.74 230.02C279.7 240.07 268.91 249.42 258.25 251.5C257.29 247.6 258.89 242.79 259 238.75C259.28 229.04 259.12 219.42 256.19 210.12C255.13 206.76 254.06 201.42 250.75 199.57C248.88 201.54 250.25 207.06 250.55 209.75C251.26 216.18 252.19 228.07 246.75 232.9C241.37 227.85 240.32 212.72 233.25 209.04C226.43 210.58 229.51 217.79 225.31 220.09C223.51 221.08 220.14 218.94 218.41 218.33C215.28 217.22 209.99 217.67 207.66 220.41C205.84 222.54 206.9 227.21 205.43 229.75C201.8 229.37 197.96 226.35 194.27 227.04C189.76 227.88 186.47 231.98 181.38 230.79C178.71 230.17 177.04 227.89 175.08 226.18C170.3 222.02 162.68 218.06 159.27 212.75C164.28 207.88 169.75 204.52 171.31 197.11C171.89 194.35 171.83 190.18 169.25 188.58C167.81 197.62 167.41 198.89 159.87 204.13C158.06 205.39 156.41 206.94 154.25 207.43C145.88 202.14 150.33 193.97 155.46 188.22C163.88 178.79 174.35 170.94 183.56 162.31C187.03 159.06 191.14 155.99 193.6 151.86C195.91 147.98 196.77 143.6 198.16 139.35C199.79 134.35 202.47 129.45 205.29 125.03C208.35 120.22 218.52 110.85 219.74 107.03C221.02 103.02 219.61 94.78 221.18 88.86C223.54 79.97 228.25 71.88 230.74 63.01C231.76 59.38 230.88 53.75 232.65 50.75C238.09 49.34 243.35 58.18 246.75 61.22C251.76 59.67 256.85 53.54 260.97 50.23C270.44 42.6 280.11 34.85 290.9 29.19C310.62 18.85 332.1 18.99 353.78 21.82C362.78 23 372.54 24 381.08 27.22C388.32 29.95 394.98 33.64 401.57 37.68C411.4 43.7 420.49 51.45 428.46 59.78C430.55 61.97 435.81 66.06 435.75 69.04ZM230.25 128.71C221.57 128.56 210.6 142.51 215.01 150.75C217.67 150.57 220.43 147.86 222.52 146.27C227.37 142.6 235.86 135.8 230.25 128.71ZM129.25 190.36C125.64 188.42 124.02 174.46 120.75 170.34C119.96 174.86 121.4 180.17 121.81 184.77C122.78 195.58 123.24 208.74 117.74 218.52C111.06 230.4 93.12 235.44 83.25 243.93C82.65 247.68 85.52 252.36 86.83 255.87C89.37 262.72 92.25 269.5 97.37 274.89C106.59 284.6 119.46 290.37 126.69 302.05C132.03 310.69 132.12 320.23 128.25 329.47C127.52 331.21 126.74 334.26 125.28 335.52C122.21 338.16 118.07 333.24 117.17 330.63C115.69 326.3 115.61 321.73 113.73 317.5C109.97 309.06 102.75 302.29 95.63 296.61C93.07 294.57 89.22 289.83 86.05 289.25C84.83 292.76 85.54 297.53 85.59 301.25C85.71 309.53 85.09 318.45 86.72 326.56C87.44 330.11 89.28 337.84 84.75 339.18C81.47 335.75 80.21 329.45 78.73 325C75.52 315.32 73.81 305.2 72.21 295.13C71.41 290.06 71.26 284.74 69.75 279.82C63.49 277.43 49.19 278.06 42.25 278.48C39.19 278.67 35.92 279.5 32.94 278.75C34.86 274.86 40.25 273.08 44.08 271.78C53.59 268.57 64.21 268.61 73.49 264.75C70.84 260.83 63.58 260.13 59.25 259.42C44.28 256.98 24.41 265.27 19.75 280.53C18.94 283.2 18.46 286.2 19.25 288.92C24.15 289.24 36.78 284.82 39.73 289.25C37.34 296.43 24.02 300.48 22.1 309.77C20.09 319.53 25.59 335.59 28.74 344.99C39.18 376.23 55.85 411.59 84.99 429.74C96.18 436.7 108.79 439.47 121.39 442.79C125.62 443.9 136.61 445.9 139.25 449.13C138.77 451.88 134.53 451.8 132.32 452.19C125.35 453.4 118.45 454.4 111.42 455.24C89.18 457.9 77.25 457.78 56.97 448.3C47.66 443.95 39.57 438.3 33.18 430.09C13.47 404.76 11.92 370.96 9.85 340.25C8.27 316.89 6.71 293.7 6.98 270.25C7.08 261.04 6.97 251.53 8.22 242.39C9.49 233.15 10.57 223.36 13.22 214.42C15.41 207.06 18.68 200.03 21.73 193C28.57 177.21 35.95 163.37 47.87 150.63C53.77 144.33 65.67 131.4 73.97 129.26C80.15 127.66 86.31 133.28 92.02 134.72C97.02 135.98 101.21 130.3 106.1 131.23C110.78 132.12 112.58 138.1 116.77 139.97C121.36 142.01 127.18 137.62 131.3 139.91C134.1 141.47 134.7 147.85 134.94 150.75C135.66 159.51 134.52 172.69 132.44 181.23C131.73 184.15 131.97 188.52 129.25 190.36ZM107.75 198.65C108.84 194.37 107.06 188.88 106.22 184.6C103.64 171.45 99.16 159.87 88.99 150.75C84.55 146.77 79 141.14 72.41 143.22C62.66 146.29 55.06 156.03 48.8 163.57C34.24 181.14 25.36 202.16 21.73 224.45C20.54 231.75 18.62 241.46 20.25 248.72C28.63 244.61 35.86 240.56 45.34 239.2C52.82 238.13 60.43 239.74 67.75 238.81C68.08 237.32 67.59 217.07 74.42 224.34C76.12 226.16 76.14 229.06 77.75 230.83C85.5 230.34 99.09 225.36 105.13 220.38C107.55 218.39 111.2 214.5 110.24 211.02C109.34 207.73 100.58 208.15 97.75 208.03C92.47 207.8 84.33 208.1 79.55 205.69C77.04 204.42 75.12 200.08 74.18 197.62C72.23 192.49 69.21 185.43 70.21 179.86C71.14 174.67 77.16 167.43 82.56 172.21C85.82 175.1 88.47 181.67 89.73 185.75C86.28 186.4 83.95 182.12 80.62 181.25C79.59 183.71 80.98 187.49 81.72 190.02C82.51 192.72 82.61 196.62 84.38 198.89C87.19 202.5 103.86 200.2 107.75 198.65ZM137.75 191.09C135.35 188.62 136.5 185.32 136.97 182.25C138.04 175.3 139.42 168.3 139.96 161.25C140.16 158.56 139.88 153.98 142.15 152.25C144.49 153.3 146.18 158.31 147.23 160.55C148.71 163.7 150.82 167.18 150.91 170.75C151.08 177.01 143.3 188.29 137.75 191.09ZM228.74 232.25C226.83 237.34 223.17 242.26 217.92 244.21C215.83 244.98 212.51 245.6 211.3 242.97C210.29 240.77 212.51 239.05 213.83 237.6C216.95 234.15 224.18 227.12 228.74 232.25ZM233.6 365.75C229.51 366.22 225.07 363.11 221.59 361.2C214.07 357.06 206.69 352.09 198.57 349.23C180.49 342.87 146.35 346.02 130.55 357.3C126.96 359.86 123.64 363.28 121.27 367C120.24 368.61 119.52 370.56 118.25 371.93C112.39 372.5 110.75 363.36 112.23 358.93C113.02 356.58 114.66 354.36 116.23 352.46C125.9 340.79 138.81 334.86 152.98 330.75C153.11 325.99 149.55 321.7 151.46 316.75C155.16 316.66 166.68 322.24 170.93 323.77C189.33 330.41 204.86 332.91 219.93 346.81C223.24 349.86 235.04 361.42 233.6 365.75ZM272.56 432.75C269.34 432.38 262.78 425.55 259.95 423.3C252.23 417.16 243.75 411.71 234.12 409.2C220.48 405.63 205.56 408 192.36 412.17C186.22 414.12 180 417.89 173.59 418.77C163.55 420.14 153.12 417.1 144.42 412.33C136.81 408.14 130.2 401.93 125.85 394.38C124.28 391.65 122.32 388.7 123.25 385.49C127.85 384.13 133.62 389.72 137.4 391.81C145.37 396.22 155.02 398.58 164.01 399.74C186.88 402.7 208.49 391 231.23 394.16C238.64 395.18 246.06 399.04 252.44 402.78C261.86 408.3 265 413.31 269.21 423.09C270.3 425.62 273.07 430.04 272.56 432.75ZM317.94 476.75C313.84 479.73 307.2 480.85 302.35 482.17C290.65 485.35 278.88 487.75 266.81 489.2C240.66 492.35 214.04 492.94 187.76 490.82C165.12 489 142.46 484.95 119.74 484.2C108.81 483.84 97.65 484.34 86.85 486.2C74.08 488.41 60.88 491.88 47.8 489.82C30.77 487.14 21.75 468.69 21.49 452.75C21.42 447.84 24.53 442.64 30.14 444.18C34.52 445.38 39.63 452.17 43.94 454.79C55.08 461.55 69.23 467.41 82.28 468.81C89.55 469.6 96.96 469.03 104.25 469.09C118.24 469.19 132.26 469.79 146.25 470.14C168.31 470.68 190.24 473.34 212.25 474.15C224.75 474.61 236.85 472.31 248.88 469.2C253.57 467.99 260.84 467.26 264.61 464.25C261.47 457.74 256.06 451.78 251.66 446.08C249.78 443.64 246.1 440.35 246.09 437.25C252.12 436.42 259.76 442.52 264.51 445.73C276.41 453.79 288.15 462.3 300.4 469.82C305.41 472.9 313.91 472.63 317.94 476.75Z" fill="#c9a24b" fillRule="evenodd" stroke="#c9a24b" strokeWidth="0.25" strokeLinejoin="round"/>
</svg>